<svg width="24" height="24" viewBox="0 0 24 24" fill="none" xmlns="http://www.w3.org/2000/svg">
<path fill-rule="evenodd" clip-rule="evenodd" d="M22.4999 12C22.4999 11.8011 22.4209 11.6103 22.2802 11.4696C22.1396 11.329 21.9488 11.25 21.7499 11.25H4.06038L8.78088 6.53097C8.85061 6.46124 8.90592 6.37846 8.94366 6.28735C8.9814 6.19624 9.00082 6.09859 9.00082 5.99997C9.00082 5.90135 8.9814 5.8037 8.94366 5.7126C8.90592 5.62149 8.85061 5.5387 8.78088 5.46897C8.71114 5.39924 8.62836 5.34392 8.53725 5.30619C8.44614 5.26845 8.34849 5.24902 8.24988 5.24902C8.15126 5.24902 8.05361 5.26845 7.9625 5.30619C7.87139 5.34392 7.78861 5.39924 7.71888 5.46897L1.71888 11.469C1.64903 11.5386 1.59362 11.6214 1.55581 11.7125C1.518 11.8036 1.49854 11.9013 1.49854 12C1.49854 12.0986 1.518 12.1963 1.55581 12.2874C1.59362 12.3785 1.64903 12.4613 1.71888 12.531L7.71888 18.531C7.78861 18.6007 7.87139 18.656 7.9625 18.6938C8.05361 18.7315 8.15126 18.7509 8.24988 18.7509C8.34849 18.7509 8.44614 18.7315 8.53725 18.6938C8.62836 18.656 8.71114 18.6007 8.78088 18.531C8.85061 18.4612 8.90592 18.3785 8.94366 18.2873C8.9814 18.1962 9.00082 18.0986 9.00082 18C9.00082 17.9014 8.9814 17.8037 8.94366 17.7126C8.90592 17.6215 8.85061 17.5387 8.78088 17.469L4.06038 12.75H21.7499C21.9488 12.75 22.1396 12.671 22.2802 12.5303C22.4209 12.3896 22.4999 12.1989 22.4999 12Z" fill="#333333"/>
</svg>
