<svg width="16" height="16" viewBox="0 0 16 16" fill="none" xmlns="http://www.w3.org/2000/svg">
<g clip-path="url(#clip0_104_4)">
<path d="M6 0.278298C6.09761 0.396911 6.15741 0.54207 6.17168 0.695021C6.18594 0.847972 6.154 1.00168 6.08 1.1363C5.50186 2.19777 5.19993 3.38759 5.202 4.5963C5.202 8.6173 8.48 11.8733 12.52 11.8733C13.047 11.8733 13.56 11.8183 14.053 11.7133C14.2041 11.6806 14.3615 11.6931 14.5056 11.7493C14.6497 11.8055 14.774 11.9029 14.863 12.0293C14.957 12.1607 15.0049 12.3196 14.9993 12.4811C14.9937 12.6426 14.9349 12.7977 14.832 12.9223C14.0477 13.8857 13.0582 14.662 11.9358 15.1945C10.8134 15.727 9.58632 16.0023 8.344 16.0003C3.734 16.0003 0 12.2863 0 7.7103C0 4.2663 2.114 1.3123 5.124 0.0602985C5.27394 -0.00306965 5.44039 -0.0160757 5.59835 0.0232342C5.75631 0.062544 5.89725 0.152047 6 0.278298V0.278298ZM4.858 1.3113C3.7006 1.93213 2.73304 2.85494 2.05813 3.98166C1.38323 5.10838 1.0262 6.39691 1.025 7.7103C1.025 11.7303 4.304 14.9863 8.344 14.9863C9.31144 14.988 10.2696 14.7978 11.1631 14.4266C12.0565 14.0555 12.8675 13.5109 13.549 12.8243C13.212 12.8663 12.869 12.8873 12.52 12.8873C7.91 12.8873 4.177 9.1733 4.177 4.5973C4.177 3.4303 4.419 2.3193 4.858 1.3113V1.3113Z" fill="black"/>
</g>
<defs>
<clipPath id="clip0_104_4">
<rect width="16" height="16" fill="white"/>
</clipPath>
</defs>
</svg>
