<svg width="24" height="24" viewBox="0 0 24 24" fill="currentColor" xmlns="http://www.w3.org/2000/svg">
<path fill-rule="evenodd" clip-rule="evenodd" d="M16.3541 9.64592C16.4007 9.69236 16.4376 9.74754 16.4629 9.80828C16.4881 9.86903 16.501 9.93415 16.501 9.99992C16.501 10.0657 16.4881 10.1308 16.4629 10.1916C16.4376 10.2523 16.4007 10.3075 16.3541 10.3539L12.0001 14.7069L7.64614 10.3539C7.55226 10.26 7.49951 10.1327 7.49951 9.99992C7.49951 9.86714 7.55226 9.7398 7.64614 9.64592C7.74003 9.55203 7.86737 9.49929 8.00014 9.49929C8.13292 9.49929 8.26026 9.55203 8.35414 9.64592L12.0001 13.2929L15.6461 9.64592C15.6926 9.59935 15.7478 9.56241 15.8085 9.5372C15.8693 9.512 15.9344 9.49902 16.0001 9.49902C16.0659 9.49902 16.131 9.512 16.1918 9.5372C16.2525 9.56241 16.3077 9.59935 16.3541 9.64592Z" fill="currentColor"/>
</svg>
